<svg xmlns="http://www.w3.org/2000/svg" width="36" height="36" viewBox="0 0 36 36">
    <g fill="none">
        <ellipse cx="18.064" cy="18.043" fill="#FFF" rx="17.872" ry="17.872"/>
        <path fill="#72CCDC" d="M18.9159763 1.98106509C19.6615385 2.89704142 18.7242604 3.7704142 18.7242604 4.75029586L18.660355 11.2686391C18.2982249 11.3325444 17.9147929 11.460355 17.5526627 11.5668639L17.5526627 11.4390533 17.2970414 4.62248521C17.1692308 3.64260355 16.8071006 2.27928994 17.9147929 1.72544379 18.2343195 1.68284024 18.6816568 1.68284024 18.9159763 1.98106509L18.9159763 1.98106509zM5.26153846 9.43668639C5.45325444 8.69112426 6.07100592 8.03076923 6.43313609 7.2852071 7.17869822 6.47573964 7.96686391 5.75147929 8.94674556 5.43195266L9.20236686 5.24023669C8.41420118 6.79526627 6.75266272 8.39289941 5.26153846 9.43668639L5.26153846 9.43668639zM29.3751479 7.0295858C29.9928994 7.7112426 30.4189349 8.49940828 30.7384615 9.30887574L28.7786982 7.58343195C28.0970414 6.90177515 27.4153846 6.17751479 26.9893491 5.36804734 27.9053254 5.68757396 28.6295858 6.30532544 29.3751479 7.0295858L29.3751479 7.0295858z"/>
        <path fill="#72CCDC"/>
        <path fill="#72CCDC" d="M22.7289941 8.26508876C23.2189349 9.18106509 23.0911243 10.4804734 22.4733728 11.3325444 21.3656805 12.9940828 19.2781065 12.9301775 17.5526627 13.4840237 16.8710059 13.6118343 16.1467456 14.1656805 15.9550296 14.8899408 15.8911243 15.5076923 16.3171598 15.9337278 16.764497 16.2532544L17.0201183 16.3810651 17.0840237 17.6804734C16.0402367 17.4887574 14.8047337 16.764497 14.5704142 15.6568047 14.5065089 15.0390533 14.5704142 14.4213018 14.8260355 13.9313609 16.0615385 11.5881657 18.9372781 12.2698225 20.8544379 11.0343195 21.0461538 10.7786982 21.2804734 10.5443787 21.408284 10.2887574 21.1526627 10.0970414 20.8544379 9.92662722 20.4923077 9.86272189 20.1301775 9.67100592 19.6828402 9.60710059 19.2568047 9.50059172L19.2568047 9.13846154C20.0662722 9.33017751 20.7905325 9.50059172 21.4721893 9.94792899 21.5360947 9.75621302 21.5360947 9.52189349 21.4721893 9.33017751 21.408284 8.47810651 20.556213 7.86035503 19.7467456 7.66863905 19.6189349 7.60473373 19.4485207 7.5408284 19.2568047 7.60473373L19.2568047 6.30532544C20.6414201 6.34792899 22.0047337 6.96568047 22.7289941 8.26508876L22.7289941 8.26508876zM32.4426036 12.504142C32.3786982 12.695858 32.3786982 12.9301775 32.3147929 13.1218935 31.3349112 11.5881657 29.4177515 10.608284 28.6295858 8.94674556 29.4816568 9.37278107 30.5893491 9.92662722 31.2071006 10.9065089 31.5053254 11.3325444 31.7609467 11.7585799 32.016568 12.2059172 32.016568 11.5881657 31.7609467 11.0343195 31.6544379 10.4804734 31.2923077 9.56449704 31.2284024 8.52071006 30.9088757 7.58343195 32.208284 8.88284024 32.7621302 10.608284 32.4426036 12.504142L32.4426036 12.504142z"/>
        <path fill="#72CCDC"/>
        <path fill="#72CCDC" d="M3.98343195 11.8224852C4.17514793 11.8224852 4.17514793 11.6307692 4.2816568 11.5242604 4.53727811 10.9065089 5.02721893 10.416568 5.58106509 9.99053254L7.5408284 8.58461538C7.17869822 9.69230769 6.07100592 10.7360947 5.09112426 11.4816568 4.60118343 11.9715976 4.1112426 12.5254438 3.6852071 13.0792899 3.4295858 11.2260355 3.38698225 9.20236686 4.60118343 7.7964497 4.77159763 9.24497041 4.2816568 10.4804734 3.98343195 11.8224852L3.98343195 11.8224852zM33.7420118 14.3573964L32.9325444 17.1266272 32.9325444 17.1905325C32.6769231 16.6366864 32.5704142 16.0828402 32.1869822 15.5928994L30.887574 13.739645C30.5893491 13.1218935 30.2698225 12.504142 30.2698225 11.843787L31.6757396 13.5692308C32.2295858 14.3147929 32.4213018 15.2307692 32.8473373 16.0189349 33.0390533 14.783432 32.8473373 13.3775148 33.0390533 12.1420118 33.1029586 11.5242604 33.2946746 11.0343195 33.2307692 10.416568 33.8059172 11.5881657 34.0402367 13.0579882 33.7420118 14.3573964L33.7420118 14.3573964z"/>
        <path fill="#72CCDC" d="M3.04615385,14.5278107 C3.11005917,15.0816568 2.9183432,15.6994083 3.1739645,16.1893491 C3.23786982,15.9337278 3.23786982,15.6994083 3.36568047,15.443787 C3.72781065,14.1443787 4.53727811,12.9940828 5.58106509,11.8863905 C5.38934911,13.9739645 3.4295858,15.3372781 3.1739645,17.3609467 C2.42840237,15.3372781 1.21420118,12.7384615 2.62011834,10.5869822 C2.68402367,11.9502959 2.87573964,13.2497041 3.04615385,14.5278107 L3.04615385,14.5278107 Z"/>
        <path fill="#72CCDC"/>
        <path fill="#72CCDC"/>
        <path fill="#72CCDC" d="M18.4260355,19.895858 C18.1278107,19.9597633 17.8721893,20.087574 17.5739645,20.087574 L17.4461538,14.0591716 C17.7443787,13.8674556 18.191716,13.8674556 18.4899408,13.7609467 L18.4260355,18.3195266 L18.4260355,19.895858 L18.4260355,19.895858 Z"/>
        <path fill="#72CCDC"/>
        <path fill="#72CCDC" d="M1.15029586,14.5278107 C1.51242604,16.3171598 2.81183432,17.7230769 3.23786982,19.512426 C3.36568047,19.8106509 3.4295858,20.1940828 3.6,20.4923077 C3.72781065,20.0023669 3.66390533,19.4485207 3.72781065,18.8946746 C3.8556213,17.6591716 4.08994083,16.4449704 4.83550296,15.3798817 C5.19763314,17.5952663 3.8556213,19.2568047 3.91952663,21.408284 L2.06627219,19.0011834 C1.21420118,17.7443787 0.78816568,16.1254438 1.15029586,14.5278107 L1.15029586,14.5278107 L1.15029586,14.5278107 Z"/>
        <path fill="#72CCDC"/>
        <path fill="#72CCDC" d="M34.3597633 17.9786982L33.7420118 19.0863905 32.3360947 21.0461538 31.8461538 21.8982249C31.9739645 19.5550296 30.6745562 17.5952663 31.0366864 15.1881657 31.8461538 16.8497041 32.4 18.6390533 32.208284 20.5988166 32.4639053 20.3431953 32.4639053 20.1088757 32.5704142 19.8532544L33.4224852 17.8934911C33.8485207 16.9136095 34.2745562 15.8698225 34.6579882 14.8260355 35.0414201 15.8911243 34.6579882 16.9988166 34.3597633 17.9786982L34.3597633 17.9786982zM20.4071006 17.7443787C20.8970414 18.1065089 21.0887574 18.7242604 20.9609467 19.4059172 20.8331361 19.895858 20.5349112 20.4497041 20.0449704 20.7053254 19.3633136 21.0035503 18.6390533 21.1313609 17.8934911 21.3869822 17.6378698 21.5786982 17.2118343 21.7491124 17.2118343 22.1325444L17.2118343 23.2402367C16.7857988 23.112426 16.4662722 22.6863905 16.4023669 22.260355 16.2745562 21.7704142 16.4023669 21.216568 16.8284024 20.8970414 17.7443787 20.2153846 18.9798817 20.3431953 19.7254438 19.4272189 19.8532544 19.235503 19.7893491 18.9372781 19.6615385 18.7455621 19.4698225 18.4899408 19.235503 18.4473373 18.9798817 18.2556213L18.9798817 17.147929C19.5337278 17.1905325 19.9597633 17.4248521 20.4071006 17.7443787L20.4071006 17.7443787z"/>
        <path fill="#72CCDC"/>
        <path fill="#72CCDC"/>
        <path fill="#72CCDC"/>
        <path fill="#72CCDC"/>
        <path fill="#72CCDC" d="M30.8449704 24.2627219C31.4627219 23.7727811 31.6544379 23.0911243 32.0804734 22.5372781L33.443787 20.939645C33.7420118 20.5136095 34.0615385 20.1940828 34.3597633 19.7680473 34.104142 22.0473373 32.3360947 23.8366864 30.4828402 25.2426036L29.9289941 25.7964497C30.4828402 24.4331361 30.5467456 22.6650888 30.2272189 21.1739645 30.1633136 20.4923077 30.4189349 19.8106509 30.5893491 19.2142012 30.9088757 20.747929 31.3349112 22.643787 30.8449704 24.2627219L30.8449704 24.2627219zM3.4295858 22.1538462C3.8556213 22.7715976 4.2816568 23.3893491 4.79289941 24.0071006 4.72899408 22.4733728 4.49467456 20.6840237 5.04852071 19.2781065 5.34674556 19.704142 5.34674556 20.2579882 5.47455621 20.747929L5.53846154 21.4934911 5.53846154 24.4544379C5.53846154 24.816568 5.73017751 25.1360947 5.79408284 25.4982249L3.9408284 24.0923077C2.47100592 22.7289941 1.42721893 21.1952663 1.17159763 19.2994083L3.4295858 22.1538462 3.4295858 22.1538462z"/>
        <path fill="#72CCDC"/>
        <path fill="#72CCDC"/>
        <path fill="#72CCDC"/>
        <path fill="#72CCDC" d="M18.2982249 28.1183432C18.1704142 28.2461538 18.2343195 28.3100592 18.1065089 28.3739645 17.9147929 28.5017751 17.808284 28.2461538 17.7443787 28.1183432L17.6804734 24.0497041 17.616568 22.0260355C17.808284 21.8343195 18.1065089 21.8343195 18.3621302 21.7278107L18.3621302 23.687574 18.2982249 28.1183432 18.2982249 28.1183432zM28.3952663 27.2662722C28.3313609 27.4579882 28.2035503 27.564497 28.2035503 27.6923077 30.0994083 26.5846154 31.9526627 25.2852071 33.6781065 23.8153846 32.7621302 26.9467456 29.3112426 27.564497 26.904142 28.8 28.3100592 26.9467456 28.0118343 24.3692308 29.4816568 22.5372781 29.4390533 24.2627219 29.183432 25.9029586 28.3952663 27.2662722L28.3952663 27.2662722zM6.98698225 24.0071006C7.5408284 25.5408284 7.66863905 27.2662722 8.58461538 28.6295858 6.79526627 27.8840237 4.83550296 27.3940828 3.36568047 25.860355 2.81183432 25.2426036 2.38579882 24.6248521 2.13017751 23.9005917 2.19408284 23.8366864 2.25798817 23.9005917 2.25798817 23.964497 3.62130178 25.2 5.15502959 25.7538462 6.49704142 26.9254438 6.8591716 27.1810651 7.1147929 27.5431953 7.47692308 27.6710059 7.2852071 26.9893491 6.8591716 26.3715976 6.62485207 25.7112426 6.32662722 24.7952663 6.07100592 23.7514793 6.19881657 22.643787 6.56094675 22.9633136 6.75266272 23.5171598 6.98698225 24.0071006L6.98698225 24.0071006zM16.956213 23.6449704C16.8923077 23.7088757 16.764497 23.7088757 16.7005917 23.6449704L16.6366864 23.5171598 16.5727811 23.5171598C16.4449704 23.3254438 16.3810651 23.1550296 16.3810651 22.9633136 16.5301775 23.1976331 16.8284024 23.3893491 16.956213 23.6449704L16.956213 23.6449704z"/>
        <path fill="#72CCDC" d="M16.8923077 4.81420118C14.0591716 5.06982249 11.6733728 6.28402367 9.56449704 8.37159763L10.9704142 9.73491124C12.5680473 8.13727811 14.4852071 7.32781065 16.5088757 6.73136095L16.8710059 6.6035503 16.8710059 7.83905325C16.0615385 8.26508876 15.5076923 9.24497041 14.7195266 9.56449704 14.2934911 9.86272189 13.8035503 10.1822485 13.3136095 10.416568 13.1218935 10.2887574 12.9514793 10.4804734 12.8236686 10.608284L12.5680473 11.1621302C12.504142 11.0343195 12.5680473 10.9065089 12.6319527 10.8 12.504142 10.8 12.3337278 10.8639053 12.2059172 10.8639053 12.504142 10.6721893 13.0153846 10.5656805 12.9514793 10.1183432 13.0153846 9.43668639 13.4414201 8.88284024 13.6970414 8.26508876 13.6970414 8.20118343 13.7609467 8.13727811 13.7609467 8.13727811L13.7609467 8.13727811C12.8449704 8.56331361 12.035503 9.24497041 11.2473373 9.99053254 11.4390533 10.2461538 11.6733728 10.416568 11.8650888 10.6721893L11.7372781 10.8 11.1195266 10.1822485C9.39408284 11.9715976 8.60591716 14.2508876 8.54201183 16.7005917L10.4378698 16.7005917C10.4378698 14.6769231 11.183432 12.9514793 12.4615385 11.4816568L12.3976331 11.4177515 12.4615385 11.2899408 12.5893491 11.3538462C13.8248521 10.0544379 15.2946746 9.39408284 16.956213 9.07455621L16.956213 9.43668639C15.3585799 9.69230769 13.9952663 10.3526627 12.7810651 11.5881657L14.4426036 13.2497041C14.7408284 12.887574 15.1242604 12.695858 15.4863905 12.4402367 15.6142012 12.5680473 15.4863905 12.7384615 15.3585799 12.8023669 14.3786982 13.4201183 13.7609467 14.4 13.4627219 15.443787 13.5905325 15.5076923 13.6544379 15.1455621 13.8887574 15.1881657 14.016568 15.1881657 13.8887574 14.9964497 14.0804734 15.060355 14.1443787 15.1881657 14.1443787 15.4863905 14.1443787 15.6781065 14.2721893 16.487574 14.8899408 17.339645 15.6781065 17.7017751L16.104142 17.8295858C16.0402367 17.8934911 15.8059172 17.9573964 15.8059172 18.1278107 15.8059172 18.191716 15.7420118 18.2556213 15.7420118 18.3195266 15.8698225 18.4473373 15.6142012 18.6177515 15.7420118 18.7455621 15.9337278 18.6177515 16.2319527 18.4473373 16.2319527 18.191716 16.4236686 17.9360947 16.6579882 17.8934911 16.9136095 17.8295858 16.9775148 17.8934911 17.0414201 17.8934911 17.1053254 18.0213018 17.1053254 18.0852071 17.0414201 18.0852071 16.9775148 18.1491124L16.487574 18.5751479 16.3597633 18.5112426 14.6343195 20.2366864C15.060355 20.7266272 15.6142012 20.9822485 16.1680473 21.216568 16.104142 21.2804734 16.104142 21.4721893 16.0402367 21.408284 15.4863905 21.1526627 14.9325444 20.8544379 14.5065089 20.364497 14.016568 20.8544379 13.5905325 21.2804734 13.1005917 21.7704142 13.2923077 21.8982249 13.2923077 22.3242604 13.5905325 22.3881657 13.7822485 22.5159763 13.7822485 22.643787 13.7822485 22.8142012 14.8260355 23.5597633 15.9976331 24.0497041 17.2331361 24.1775148L17.2331361 24.4331361C15.9337278 24.3692308 14.7195266 23.8792899 13.6118343 23.1337278 13.0579882 22.9420118 12.7597633 23.495858 12.2059172 23.4319527 12.0142012 23.3680473 11.7798817 23.304142 11.5242604 23.3680473L11.2686391 23.6236686C12.9301775 25.3491124 14.9538462 26.2011834 17.2331361 26.3928994L17.1692308 26.6911243C14.9538462 26.4994083 12.9301775 25.6473373 11.2686391 24.0497041L11.0130178 23.8579882 9.64970414 25.2213018C11.8011834 27.5005917 14.4426036 28.6721893 17.4674556 28.8426036 20.7905325 28.8426036 23.687574 27.7349112 26.0733728 25.4556213 26.0733728 25.391716 26.1372781 25.3278107 26.1372781 25.3278107L24.7313609 23.9218935C23.9857988 24.6674556 23.0698225 25.2852071 22.1538462 25.7751479 21.7278107 26.0307692 21.408284 26.3928994 20.9183432 26.5207101L20.7266272 26.3289941C20.1088757 26.4568047 19.4911243 26.6272189 18.8733728 26.6911243L18.8094675 26.3928994C19.235503 26.3289941 19.7254438 26.2650888 20.1727811 26.1372781 20.1727811 25.8816568 19.8106509 25.7751479 19.6189349 25.6473373 19.4272189 25.4556213 19.2568047 25.2213018 19.3633136 24.9017751 19.6189349 25.2 19.7893491 25.6473373 20.1727811 25.7112426 20.5988166 25.3491124 20.364497 24.6674556 20.364497 24.1775148 20.2366864 24.0497041 20.0662722 24.1775148 19.9384615 24.1775148 20.0662722 24.3053254 20.0662722 24.539645 20.1301775 24.7313609 20.1940828 24.8591716 20.1301775 24.9869822 20.1940828 25.0934911 20.0023669 25.0295858 19.895858 24.7952663 19.7680473 24.6035503 19.6402367 24.4757396 19.5763314 24.3053254 19.4059172 24.3053254L18.9798817 24.4331361 18.9798817 24.1349112C19.043787 24.1349112 19.1076923 24.1349112 19.235503 24.0710059 18.7455621 24.0710059 19.043787 23.5810651 18.9798817 23.3254438 19.2781065 23.4532544 19.5976331 23.687574 19.7893491 23.9431953 19.9171598 23.8792899 20.1514793 23.8792899 20.087574 23.7514793 19.7893491 23.3893491 19.4059172 23.0698225 18.9798817 22.8994083L18.9798817 21.6C19.9597633 21.3017751 21.0035503 20.8544379 21.4295858 19.8106509 21.6213018 19.0011834 21.5573964 18.0852071 20.939645 17.5313609 20.3857988 17.0414201 19.704142 16.7218935 19.043787 16.5514793L19.043787 14.208284C19.1715976 14.1443787 19.2994083 14.0804734 19.4059172 14.016568 19.5976331 14.2721893 19.1502959 14.6343195 19.5976331 14.7621302 19.8532544 14.7621302 19.8532544 14.5065089 19.895858 14.4 19.895858 14.2721893 20.0236686 14.1017751 20.1514793 14.0378698 20.4071006 14.0378698 20.4497041 13.6757396 20.7692308 13.7822485L23.0485207 11.5029586C22.9207101 11.3751479 23.112426 11.2047337 23.112426 11.0769231L23.3680473 11.2686391C23.4319527 11.0130178 24.0497041 10.8426036 23.6662722 10.5230769 23.6023669 10.4591716 23.5384615 10.3952663 23.4745562 10.3313609 23.7301775 9.58579882 23.6662722 8.73372781 23.2828402 8.11597633 23.2828402 8.05207101 23.3467456 7.98816568 23.4106509 7.92426036 23.6662722 8.11597633 23.9005917 8.41420118 24.2627219 8.35029586 24.4544379 8.60591716 24.7526627 8.84023669 24.6887574 9.20236686 24.7526627 9.33017751 24.8804734 9.45798817 25.0508876 9.45798817L26.2863905 8.22248521C24.3905325 6.13491124 21.983432 5.15502959 19.3420118 4.77159763L19.3420118 4.26035503C23.5810651 4.62248521 27.947929 8.07337278 29.4177515 12.1846154 31.3136095 17.1692308 29.843787 22.8142012 25.860355 26.3928994 23.7088757 28.1822485 21.3017751 29.2260355 18.4260355 29.2899408 15.2307692 29.4177515 12.4615385 28.4378698 10.1183432 26.4568047 6.17751479 23.0059172 4.64378698 17.5313609 6.49704142 12.6106509 7.5408284 9.15976331 10.8639053 5.79408284 14.3147929 4.79289941 15.1668639 4.49467456 16.0402367 4.30295858 16.956213 4.17514793L16.956213 4.81420118 16.8923077 4.81420118zM14.4852071 8.26508876C14.3573964 8.32899408 14.2934911 8.39289941 14.2934911 8.52071006 14.3573964 8.58461538 14.3573964 8.77633136 14.5491124 8.71242604 14.6769231 8.64852071 14.8047337 8.58461538 14.7408284 8.45680473 14.6769231 8.32899408 14.5491124 8.20118343 14.4852071 8.26508876L14.4852071 8.26508876zM26.4142012 8.39289941L25.1786982 9.62840237 25.4769231 9.99053254C25.7751479 10.2461538 25.7751479 10.8 26.2863905 10.8426036 26.4142012 11.3964497 26.9680473 11.7585799 27.2662722 12.2485207 27.4579882 12.6106509 26.9680473 12.504142 26.8402367 12.7384615 27.3940828 13.9100592 27.6923077 15.252071 27.6497041 16.6792899L29.6094675 16.6792899C29.5668639 13.547929 28.5230769 10.7147929 26.4142012 8.39289941L26.4142012 8.39289941zM9.45798817 8.49940828C7.3704142 10.8426036 6.32662722 13.6118343 6.19881657 16.6792899L8.15857988 16.6792899C8.28639053 14.1017751 9.13846154 11.8224852 10.8639053 9.90532544 10.3739645 9.43668639 9.94792899 8.94674556 9.45798817 8.49940828L9.45798817 8.49940828zM23.8366864 11.0343195L23.4106509 11.3964497C23.964497 11.9502959 24.2201183 12.695858 24.816568 13.1218935 24.816568 13.4201183 24.9443787 13.6118343 25.008284 13.8674556 24.8804734 13.9952663 25.0721893 14.1230769 25.0721893 14.2295858 25.1360947 14.1017751 25.0721893 13.8674556 25.2 13.8035503 25.6260355 14.0591716 25.2 14.4852071 25.2639053 14.8473373 25.4556213 15.4011834 25.4556213 16.0828402 25.5621302 16.7005917L27.3514793 16.7005917C27.3514793 15.4011834 27.095858 14.1869822 26.6059172 13.0792899 26.5420118 13.0792899 26.4781065 13.1431953 26.4142012 13.1431953 26.1585799 12.887574 26.052071 12.5254438 25.860355 12.2272189 25.7325444 12.1633136 25.5621302 12.1633136 25.4343195 12.1633136 25.3704142 12.1633136 25.2426036 11.9715976 25.1786982 12.035503 24.9869822 11.843787 24.6887574 11.9715976 24.4970414 11.843787 24.3905325 11.460355 24.0284024 11.3325444 23.8366864 11.0343195L23.8366864 11.0343195zM14.3147929 13.3136095L12.6532544 11.7159763C11.3538462 13.1218935 10.8 14.783432 10.6934911 16.7005917L12.0568047 16.7005917C12.1846154 16.5088757 12.3550296 16.4449704 12.4828402 16.3384615 12.5467456 15.9763314 12.9727811 16.0402367 13.164497 15.6568047 13.4201183 14.8473373 13.7822485 14.0591716 14.3360947 13.3775148L14.3360947 13.3136095 14.3147929 13.3136095zM23.112426 11.7159763L21.5786982 13.3136095C21.7065089 13.5053254 21.8343195 13.8035503 22.0686391 13.739645 22.0686391 13.8035503 22.0047337 13.8674556 21.9408284 13.8674556 22.1325444 14.1656805 22.4946746 14.2295858 22.7928994 14.2295858 22.9846154 14.2934911 22.9207101 14.4852071 22.9846154 14.591716 23.2828402 14.783432 22.9846154 15.0816568 23.112426 15.3372781 23.304142 15.2733728 23.4106509 14.9751479 23.6662722 15.0390533 23.9218935 15.1668639 23.7301775 15.4650888 23.8579882 15.6568047 24.2840237 15.7207101 24.4118343 15.2946746 24.539645 15.0390533 24.7313609 15.4011834 24.4118343 15.7846154 24.1775148 16.0189349 24.0497041 16.0828402 23.9218935 16.0828402 23.8153846 16.1467456 23.8153846 16.4023669 23.6236686 16.6366864 23.4532544 16.7005917L25.2426036 16.7005917C25.2426036 16.4449704 25.2426036 16.0828402 25.1786982 15.8485207 25.1147929 15.912426 24.9869822 16.104142 24.8804734 16.0402367 24.816568 15.6781065 24.816568 15.1242604 24.9443787 14.6769231 24.8804734 14.6130178 24.8804734 14.3786982 24.7526627 14.4213018 24.6887574 13.9313609 24.0710059 13.6757396 24.0710059 13.2497041L24.3266272 13.2497041 24.1349112 12.9514793C24.1349112 13.0153846 24.1349112 13.0792899 24.0710059 13.1431953 23.7088757 13.0153846 23.7727811 12.6532544 23.6449704 12.3337278 23.3467456 12.2059172 23.4106509 11.8224852 23.112426 11.7159763L23.112426 11.7159763zM21.3230769 13.547929L21.2591716 13.547929C21.3869822 13.547929 21.3869822 13.6118343 21.4508876 13.6118343L21.3230769 13.547929 21.3230769 13.547929zM20.9609467 13.9313609L20.5988166 14.2295858C20.7905325 14.3573964 20.9609467 14.2295858 21.216568 14.2934911 21.408284 14.3573964 21.1526627 14.591716 21.3443787 14.7195266 21.3443787 14.6556213 21.408284 14.7195266 21.408284 14.7195266 21.4721893 14.591716 21.408284 14.4639053 21.3443787 14.3573964 21.4721893 14.2295858 21.6426036 14.2295858 21.7704142 14.1656805 21.8343195 14.0378698 21.7065089 13.9739645 21.7065089 13.9100592 21.5147929 13.9739645 21.2804734 13.9100592 21.1526627 14.0378698 21.0674556 14.0378698 20.9609467 14.0378698 20.9609467 13.9313609L20.9609467 13.9313609zM20.3431953 14.2295858C20.2792899 14.1656805 20.4710059 14.1017751 20.4710059 14.0378698L20.3431953 14.2295858 20.3431953 14.2295858zM6.19881657 16.9349112C6.32662722 20.0662722 7.30650888 22.835503 9.45798817 25.1147929 9.94792899 24.6248521 10.4378698 24.1988166 10.8639053 23.7088757L10.1822485 23.0272189C10.0544379 22.9633136 9.92662722 23.0272189 9.82011834 22.9633136 9.82011834 22.7076923 9.75621302 22.4733728 9.69230769 22.2177515 9.43668639 21.9621302 9.07455621 21.9621302 8.77633136 21.9195266 8.58461538 21.791716 8.41420118 21.5573964 8.47810651 21.3656805 8.60591716 20.8757396 8.05207101 20.8757396 7.86035503 20.556213 7.60473373 20.556213 7.56213018 20.364497 7.43431953 20.2579882 7.30650888 20.3218935 7.17869822 20.4497041 7.07218935 20.3857988 7.00828402 20.2579882 7.00828402 20.0236686 7.07218935 19.9597633 7.26390533 19.5337278 7.6260355 19.704142 7.92426036 19.704142 8.11597633 19.5763314 8.28639053 19.512426 8.47810651 19.4485207 8.28639053 18.6390533 8.17988166 17.7869822 8.17988166 16.9349112L6.19881657 16.9349112 6.19881657 16.9349112zM10.3739645 16.9349112L8.52071006 16.9349112C8.52071006 17.8508876 8.64852071 18.660355 8.88284024 19.4485207 9.13846154 19.512426 9.30887574 19.6402367 9.50059172 19.7467456 9.50059172 19.5550296 9.37278107 19.4485207 9.43668639 19.3207101 9.62840237 19.1289941 9.56449704 18.8946746 9.56449704 18.6390533 9.62840237 18.2130178 10.1183432 18.0213018 10.416568 17.7869822L10.3739645 16.9349112 10.3739645 16.9349112zM10.6721893 16.9349112L10.8 17.7869822C10.991716 17.9147929 11.1621302 18.0426036 11.4177515 18.0852071 11.6733728 17.9573964 11.7798817 17.6591716 11.843787 17.339645 12.035503 16.6366864 11.1195266 17.1266272 10.6721893 16.9349112L10.6721893 16.9349112zM12.7171598 16.9988166C12.4615385 17.0627219 12.5254438 17.4248521 12.2272189 17.4887574 12.2272189 17.7443787 12.0994083 17.9147929 11.9289941 18.1065089 11.8650888 18.2343195 11.8011834 18.3621302 11.9289941 18.4047337 12.1846154 18.5325444 12.1207101 18.8307692 12.1207101 19.0863905 12.4828402 19.3420118 12.3763314 19.8319527 12.2485207 20.1301775 12.6106509 20.3857988 12.6745562 20.8118343 12.8023669 21.1739645 12.6745562 21.2378698 12.6106509 21.3656805 12.6745562 21.5360947 12.6745562 21.6639053 12.8023669 21.6639053 12.9301775 21.6639053 13.356213 21.1739645 13.9100592 20.747929 14.3360947 20.2579882 13.5266272 19.2781065 13.1005917 18.2343195 13.0366864 16.9988166 12.887574 16.9349112 12.8236686 16.9988166 12.7171598 16.9988166L12.7171598 16.9988166zM23.2189349 16.9349112C23.1550296 17.2331361 23.3467456 17.5526627 23.3467456 17.7869822 23.3467456 17.8508876 23.4106509 17.9786982 23.4745562 17.9786982 23.6023669 17.9786982 23.5384615 17.8508876 23.6662722 17.7869822 23.9218935 17.7869822 24.0923077 17.9786982 24.2840237 18.0852071L24.156213 18.2769231C23.9005917 18.3408284 23.7940828 18.5751479 23.5384615 18.5751479 23.3467456 18.9372781 22.7928994 18.8307692 22.6863905 19.2568047 22.6224852 19.3207101 22.5585799 19.512426 22.4307692 19.3846154 22.5585799 19.9384615 21.8130178 19.8745562 21.6213018 20.2366864 21.8130178 19.9384615 22.2390533 20.2366864 22.3029586 19.8745562 22.4307692 19.7467456 22.4946746 19.8106509 22.6011834 19.8745562 22.5372781 20.1727811 22.4733728 20.4923077 22.4733728 20.7905325 22.4094675 20.8544379 22.3455621 21.0887574 22.2177515 21.0887574 22.2177515 21.0887574 22.2177515 21.1526627 22.2816568 21.1526627 22.3455621 21.0248521 22.4733728 20.8970414 22.5372781 20.8544379 23.0911243 20.9183432 22.6650888 21.6639053 23.0272189 21.8982249 24.3905325 20.4923077 25.0508876 18.8946746 25.1786982 16.9136095L23.2189349 16.9136095 23.2189349 16.9349112zM25.4982249 16.9349112C25.3704142 18.9585799 24.6887574 20.747929 23.3467456 22.1538462L23.6023669 22.452071 23.6023669 22.3881657C23.6662722 22.3242604 23.7940828 22.3242604 23.8579882 22.3881657 23.7940828 22.8781065 24.4118343 23.1337278 24.6674556 23.495858 26.3928994 21.6426036 27.2449704 19.4911243 27.3727811 16.9136095L25.4982249 16.9136095 25.4982249 16.9349112zM27.6497041 16.9349112C27.5857988 19.5763314 26.6698225 21.8556213 24.8804734 23.7514793L26.2863905 25.1573964 26.6485207 24.7313609C28.5017751 22.5159763 29.5455621 19.9384615 29.6094675 16.9136095L27.6497041 16.9136095 27.6497041 16.9349112zM13.2710059 16.9988166L13.3349112 17.4887574C13.3988166 17.3609467 13.3988166 17.2331361 13.3988166 17.0627219L13.2710059 16.9988166 13.2710059 16.9988166zM13.4414201 18.1065089C13.6331361 18.852071 13.9952663 19.4698225 14.4852071 20.0023669L15.3372781 19.1502959C15.3372781 19.0863905 15.2733728 19.0224852 15.2094675 18.9585799 14.783432 18.8307692 14.8473373 18.3408284 14.4 18.1491124 14.3360947 18.2769231 14.1443787 18.1491124 14.0378698 18.2130178 13.9313609 17.9786982 13.6331361 18.2343195 13.4414201 18.1065089L13.4414201 18.1065089zM22.0047337 21.1739645C21.8130178 21.3017751 21.5147929 21.3017751 21.2591716 21.2378698L21.1952663 21.3656805C21.4934911 21.4934911 21.8130178 21.3656805 22.1112426 21.3017751L22.0047337 21.1739645 22.0047337 21.1739645zM23.1550296 22.3455621L22.6650888 22.7715976C22.6650888 23.0272189 22.9207101 23.1337278 23.0911243 23.2615385 23.0272189 23.5171598 23.0272189 23.7514793 22.7928994 23.9431953 22.8568047 24.3692308 22.4946746 24.6887574 22.6011834 25.1786982 23.2828402 24.816568 23.9005917 24.3266272 24.4544379 23.7088757L24.0284024 23.2828402C24.0284024 23.4106509 23.964497 23.5384615 23.9005917 23.5810651 23.6449704 23.5171598 23.6023669 23.2828402 23.5384615 23.0272189 23.7727811 22.7076923 23.2828402 22.6011834 23.1550296 22.3455621L23.1550296 22.3455621zM11.183432 23.4532544L11.1195266 23.4532544 11.0556213 23.3893491C11.0556213 23.3893491 11.1195266 23.4532544 11.183432 23.4532544L11.183432 23.4532544zM25.3065089 29.9076923C25.4982249 29.9076923 25.7325444 29.7798817 25.9242604 29.7159763 27.8840237 29.1621302 30.035503 28.9704142 31.6970414 27.6923077L31.9526627 27.4366864C31.8887574 27.7349112 31.6970414 27.9905325 31.5905325 28.2887574 30.7810651 29.2686391 29.6946746 29.6946746 28.6295858 30.0142012 27.2662722 30.504142 25.6260355 30.2059172 24.1988166 30.504142L24.816568 29.5242604 26.2224852 26.6272189 27.5218935 25.2639053C27.1597633 26.9680473 26.243787 28.4378698 25.3065089 29.9076923L25.3065089 29.9076923zM9.01065089 26.2863905C9.75621302 27.2023669 10.2461538 28.1822485 10.608284 29.2899408 10.9065089 29.652071 11.0982249 30.0994083 11.2899408 30.5254438 11.1621302 30.5254438 10.991716 30.4615385 10.8639053 30.3976331L8.58461538 30.2698225C7.5408284 30.2059172 6.6887574 29.7798817 5.75147929 29.460355 5.00591716 29.0343195 4.2816568 28.416568 3.8556213 27.6710059 4.47337278 27.9692308 5.15502959 28.3526627 5.87928994 28.5230769L8.45680473 29.2047337C8.81893491 29.2047337 9.07455621 29.460355 9.37278107 29.5668639 9.79881657 29.6946746 10.1822485 29.8650888 10.608284 29.9289941 9.62840237 28.5656805 8.45680473 27.2236686 8.26508876 25.5621302 8.52071006 25.7325444 8.84023669 25.9668639 9.01065089 26.2863905L9.01065089 26.2863905zM17.0201183 30.887574C16.7218935 31.1431953 16.3384615 31.3136095 16.0402367 31.5692308 15.2946746 31.5053254 14.5704142 31.6970414 13.8887574 31.8248521 11.9289941 32.3147929 9.33017751 32.8047337 7.56213018 31.5692308L6.75266272 31.0792899C7.30650888 31.2071006 7.86035503 31.4414201 8.54201183 31.4414201 9.22366864 31.5053254 10.0118343 31.5053254 10.6295858 31.2497041L12.9727811 30.504142C14.3147929 30.2698225 15.8485207 30.2698225 17.0201183 30.887574L17.0201183 30.887574zM26.1798817 31.3349112C27.2236686 31.3988166 28.2035503 31.3988166 29.0769231 30.9727811 27.8414201 32.0804734 26.243787 32.4426036 24.5183432 32.3786982 22.5585799 32.016568 20.7053254 31.2710059 18.6177515 31.5692308 17.6378698 31.8674556 16.6579882 32.0591716 15.8485207 32.8047337 15.4224852 33.1029586 14.9964497 33.6142012 14.5491124 34.0402367 14.4213018 33.912426 14.2508876 33.7846154 13.9952663 33.7420118 16.2745562 31.5266272 18.9159763 30.0568047 22.1751479 30.6106509 23.5384615 30.7810651 24.7739645 31.3349112 26.1798817 31.3349112L26.1798817 31.3349112z"/>
        <path fill="#72CCDC" d="M21.7491124,33.8485207 C21.5573964,33.9763314 21.3869822,33.9763314 21.1952663,34.0402367 C20.4497041,33.2946746 19.7893491,32.6343195 18.9798817,32.0804734 C19.1715976,31.9526627 19.3420118,32.016568 19.5337278,31.8887574 C20.2792899,32.4852071 21.1313609,33.1029586 21.7491124,33.8485207 L21.7491124,33.8485207 Z"/>
    </g>
</svg>
